<svg width="186" height="70" viewBox="0 0 186 70" fill="none" xmlns="http://www.w3.org/2000/svg">
<rect width="186" height="70" rx="12" fill="#F86061"/>
<path d="M47.9396 42.14C46.6463 42.14 45.4529 41.84 44.3596 41.24C43.2796 40.6267 42.4196 39.78 41.7796 38.7C41.1529 37.6067 40.8396 36.38 40.8396 35.02C40.8396 33.66 41.1529 32.44 41.7796 31.36C42.4196 30.28 43.2796 29.44 44.3596 28.84C45.4529 28.2267 46.6463 27.92 47.9396 27.92C49.2463 27.92 50.4396 28.2267 51.5196 28.84C52.6129 29.44 53.4729 30.28 54.0996 31.36C54.7263 32.44 55.0396 33.66 55.0396 35.02C55.0396 36.38 54.7263 37.6067 54.0996 38.7C53.4729 39.78 52.6129 40.6267 51.5196 41.24C50.4396 41.84 49.2463 42.14 47.9396 42.14ZM47.9396 40.16C48.8596 40.16 49.6796 39.9533 50.3996 39.54C51.1196 39.1133 51.6796 38.5133 52.0796 37.74C52.4929 36.9533 52.6996 36.0467 52.6996 35.02C52.6996 33.9933 52.4929 33.0933 52.0796 32.32C51.6796 31.5467 51.1196 30.9533 50.3996 30.54C49.6796 30.1267 48.8596 29.92 47.9396 29.92C47.0196 29.92 46.1996 30.1267 45.4796 30.54C44.7596 30.9533 44.1929 31.5467 43.7796 32.32C43.3796 33.0933 43.1796 33.9933 43.1796 35.02C43.1796 36.0467 43.3796 36.9533 43.7796 37.74C44.1929 38.5133 44.7596 39.1133 45.4796 39.54C46.1996 39.9533 47.0196 40.16 47.9396 40.16ZM59.5632 32.58C59.8965 32.02 60.3365 31.5867 60.8832 31.28C61.4432 30.96 62.1032 30.8 62.8632 30.8V33.16H62.2832C61.3899 33.16 60.7099 33.3867 60.2432 33.84C59.7899 34.2933 59.5632 35.08 59.5632 36.2V42H57.2832V30.98H59.5632V32.58ZM64.199 36.44C64.199 35.3333 64.4257 34.3533 64.879 33.5C65.3457 32.6467 65.9723 31.9867 66.759 31.52C67.559 31.04 68.4457 30.8 69.419 30.8C70.139 30.8 70.8457 30.96 71.539 31.28C72.2457 31.5867 72.8057 32 73.219 32.52V27.2H75.519V42H73.219V40.34C72.8457 40.8733 72.3257 41.3133 71.659 41.66C71.0057 42.0067 70.2523 42.18 69.399 42.18C68.439 42.18 67.559 41.94 66.759 41.46C65.9723 40.9667 65.3457 40.2867 64.879 39.42C64.4257 38.54 64.199 37.5467 64.199 36.44ZM73.219 36.48C73.219 35.72 73.059 35.06 72.739 34.5C72.4323 33.94 72.0257 33.5133 71.519 33.22C71.0123 32.9267 70.4657 32.78 69.879 32.78C69.2923 32.78 68.7457 32.9267 68.239 33.22C67.7323 33.5 67.319 33.92 66.999 34.48C66.6923 35.0267 66.539 35.68 66.539 36.44C66.539 37.2 66.6923 37.8667 66.999 38.44C67.319 39.0133 67.7323 39.4533 68.239 39.76C68.759 40.0533 69.3057 40.2 69.879 40.2C70.4657 40.2 71.0123 40.0533 71.519 39.76C72.0257 39.4667 72.4323 39.04 72.739 38.48C73.059 37.9067 73.219 37.24 73.219 36.48ZM88.6137 36.22C88.6137 36.6333 88.587 37.0067 88.5337 37.34H80.1137C80.1803 38.22 80.507 38.9267 81.0937 39.46C81.6803 39.9933 82.4003 40.26 83.2537 40.26C84.4803 40.26 85.347 39.7467 85.8537 38.72H88.3137C87.9803 39.7333 87.3737 40.5667 86.4937 41.22C85.627 41.86 84.547 42.18 83.2537 42.18C82.2003 42.18 81.2537 41.9467 80.4137 41.48C79.587 41 78.9337 40.3333 78.4537 39.48C77.987 38.6133 77.7537 37.6133 77.7537 36.48C77.7537 35.3467 77.9803 34.3533 78.4337 33.5C78.9003 32.6333 79.547 31.9667 80.3737 31.5C81.2137 31.0333 82.1737 30.8 83.2537 30.8C84.2937 30.8 85.2203 31.0267 86.0337 31.48C86.847 31.9333 87.4803 32.5733 87.9337 33.4C88.387 34.2133 88.6137 35.1533 88.6137 36.22ZM86.2337 35.5C86.2203 34.66 85.9203 33.9867 85.3337 33.48C84.747 32.9733 84.0203 32.72 83.1537 32.72C82.367 32.72 81.6937 32.9733 81.1337 33.48C80.5737 33.9733 80.2403 34.6467 80.1337 35.5H86.2337ZM93.1374 32.58C93.4708 32.02 93.9108 31.5867 94.4574 31.28C95.0174 30.96 95.6774 30.8 96.4374 30.8V33.16H95.8574C94.9641 33.16 94.2841 33.3867 93.8174 33.84C93.3641 34.2933 93.1374 35.08 93.1374 36.2V42H90.8574V30.98H93.1374V32.58ZM115.149 42H112.869L106.009 31.62V42H103.729V28.08H106.009L112.869 38.44V28.08H115.149V42ZM122.923 42.18C121.883 42.18 120.943 41.9467 120.103 41.48C119.263 41 118.603 40.3333 118.123 39.48C117.643 38.6133 117.403 37.6133 117.403 36.48C117.403 35.36 117.649 34.3667 118.143 33.5C118.636 32.6333 119.309 31.9667 120.163 31.5C121.016 31.0333 121.969 30.8 123.023 30.8C124.076 30.8 125.029 31.0333 125.883 31.5C126.736 31.9667 127.409 32.6333 127.903 33.5C128.396 34.3667 128.643 35.36 128.643 36.48C128.643 37.6 128.389 38.5933 127.883 39.46C127.376 40.3267 126.683 41 125.803 41.48C124.936 41.9467 123.976 42.18 122.923 42.18ZM122.923 40.2C123.509 40.2 124.056 40.06 124.563 39.78C125.083 39.5 125.503 39.08 125.823 38.52C126.143 37.96 126.303 37.28 126.303 36.48C126.303 35.68 126.149 35.0067 125.843 34.46C125.536 33.9 125.129 33.48 124.623 33.2C124.116 32.92 123.569 32.78 122.983 32.78C122.396 32.78 121.849 32.92 121.343 33.2C120.849 33.48 120.456 33.9 120.163 34.46C119.869 35.0067 119.723 35.68 119.723 36.48C119.723 37.6667 120.023 38.5867 120.623 39.24C121.236 39.88 122.003 40.2 122.923 40.2ZM145.696 30.98L142.276 42H139.876L137.656 33.86L135.436 42H133.036L129.596 30.98H131.916L134.216 39.84L136.556 30.98H138.936L141.176 39.8L143.456 30.98H145.696Z" fill="#FFFAFA"/>
</svg>
