<svg width="263" height="148" viewBox="0 0 263 148" fill="none" xmlns="http://www.w3.org/2000/svg">
<path d="M132.84 61.14C131.547 61.14 130.353 60.84 129.26 60.24C128.18 59.6267 127.32 58.78 126.68 57.7C126.053 56.6067 125.74 55.38 125.74 54.02C125.74 52.66 126.053 51.44 126.68 50.36C127.32 49.28 128.18 48.44 129.26 47.84C130.353 47.2267 131.547 46.92 132.84 46.92C134.147 46.92 135.34 47.2267 136.42 47.84C137.513 48.44 138.373 49.28 139 50.36C139.627 51.44 139.94 52.66 139.94 54.02C139.94 55.38 139.627 56.6067 139 57.7C138.373 58.78 137.513 59.6267 136.42 60.24C135.34 60.84 134.147 61.14 132.84 61.14ZM132.84 59.16C133.76 59.16 134.58 58.9533 135.3 58.54C136.02 58.1133 136.58 57.5133 136.98 56.74C137.393 55.9533 137.6 55.0467 137.6 54.02C137.6 52.9933 137.393 52.0933 136.98 51.32C136.58 50.5467 136.02 49.9533 135.3 49.54C134.58 49.1267 133.76 48.92 132.84 48.92C131.92 48.92 131.1 49.1267 130.38 49.54C129.66 49.9533 129.093 50.5467 128.68 51.32C128.28 52.0933 128.08 52.9933 128.08 54.02C128.08 55.0467 128.28 55.9533 128.68 56.74C129.093 57.5133 129.66 58.1133 130.38 58.54C131.1 58.9533 131.92 59.16 132.84 59.16ZM144.264 51.58C144.597 51.02 145.037 50.5867 145.584 50.28C146.144 49.96 146.804 49.8 147.564 49.8V52.16H146.984C146.09 52.16 145.41 52.3867 144.944 52.84C144.49 53.2933 144.264 54.08 144.264 55.2V61H141.984V49.98H144.264V51.58ZM148.699 55.44C148.699 54.3333 148.926 53.3533 149.379 52.5C149.846 51.6467 150.473 50.9867 151.259 50.52C152.059 50.04 152.946 49.8 153.919 49.8C154.639 49.8 155.346 49.96 156.039 50.28C156.746 50.5867 157.306 51 157.719 51.52V46.2H160.019V61H157.719V59.34C157.346 59.8733 156.826 60.3133 156.159 60.66C155.506 61.0067 154.753 61.18 153.899 61.18C152.939 61.18 152.059 60.94 151.259 60.46C150.473 59.9667 149.846 59.2867 149.379 58.42C148.926 57.54 148.699 56.5467 148.699 55.44ZM157.719 55.48C157.719 54.72 157.559 54.06 157.239 53.5C156.933 52.94 156.526 52.5133 156.019 52.22C155.513 51.9267 154.966 51.78 154.379 51.78C153.793 51.78 153.246 51.9267 152.739 52.22C152.233 52.5 151.819 52.92 151.499 53.48C151.193 54.0267 151.039 54.68 151.039 55.44C151.039 56.2 151.193 56.8667 151.499 57.44C151.819 58.0133 152.233 58.4533 152.739 58.76C153.259 59.0533 153.806 59.2 154.379 59.2C154.966 59.2 155.513 59.0533 156.019 58.76C156.526 58.4667 156.933 58.04 157.239 57.48C157.559 56.9067 157.719 56.24 157.719 55.48ZM172.914 55.22C172.914 55.6333 172.887 56.0067 172.834 56.34H164.414C164.481 57.22 164.807 57.9267 165.394 58.46C165.981 58.9933 166.701 59.26 167.554 59.26C168.781 59.26 169.647 58.7467 170.154 57.72H172.614C172.281 58.7333 171.674 59.5667 170.794 60.22C169.927 60.86 168.847 61.18 167.554 61.18C166.501 61.18 165.554 60.9467 164.714 60.48C163.887 60 163.234 59.3333 162.754 58.48C162.287 57.6133 162.054 56.6133 162.054 55.48C162.054 54.3467 162.281 53.3533 162.734 52.5C163.201 51.6333 163.847 50.9667 164.674 50.5C165.514 50.0333 166.474 49.8 167.554 49.8C168.594 49.8 169.521 50.0267 170.334 50.48C171.147 50.9333 171.781 51.5733 172.234 52.4C172.687 53.2133 172.914 54.1533 172.914 55.22ZM170.534 54.5C170.521 53.66 170.221 52.9867 169.634 52.48C169.047 51.9733 168.321 51.72 167.454 51.72C166.667 51.72 165.994 51.9733 165.434 52.48C164.874 52.9733 164.541 53.6467 164.434 54.5H170.534ZM177.238 51.58C177.571 51.02 178.011 50.5867 178.558 50.28C179.118 49.96 179.778 49.8 180.538 49.8V52.16H179.958C179.064 52.16 178.384 52.3867 177.918 52.84C177.464 53.2933 177.238 54.08 177.238 55.2V61H174.958V49.98H177.238V51.58ZM197.149 51.24C197.149 51.9467 196.982 52.6133 196.649 53.24C196.316 53.8667 195.782 54.38 195.049 54.78C194.316 55.1667 193.376 55.36 192.229 55.36H189.709V61H187.429V47.1H192.229C193.296 47.1 194.196 47.2867 194.929 47.66C195.676 48.02 196.229 48.5133 196.589 49.14C196.962 49.7667 197.149 50.4667 197.149 51.24ZM192.229 53.5C193.096 53.5 193.742 53.3067 194.169 52.92C194.596 52.52 194.809 51.96 194.809 51.24C194.809 49.72 193.949 48.96 192.229 48.96H189.709V53.5H192.229ZM201.403 51.58C201.737 51.02 202.177 50.5867 202.723 50.28C203.283 49.96 203.943 49.8 204.703 49.8V52.16H204.123C203.23 52.16 202.55 52.3867 202.083 52.84C201.63 53.2933 201.403 54.08 201.403 55.2V61H199.123V49.98H201.403V51.58ZM211.379 61.18C210.339 61.18 209.399 60.9467 208.559 60.48C207.719 60 207.059 59.3333 206.579 58.48C206.099 57.6133 205.859 56.6133 205.859 55.48C205.859 54.36 206.106 53.3667 206.599 52.5C207.093 51.6333 207.766 50.9667 208.619 50.5C209.473 50.0333 210.426 49.8 211.479 49.8C212.533 49.8 213.486 50.0333 214.339 50.5C215.193 50.9667 215.866 51.6333 216.359 52.5C216.853 53.3667 217.099 54.36 217.099 55.48C217.099 56.6 216.846 57.5933 216.339 58.46C215.833 59.3267 215.139 60 214.259 60.48C213.393 60.9467 212.433 61.18 211.379 61.18ZM211.379 59.2C211.966 59.2 212.513 59.06 213.019 58.78C213.539 58.5 213.959 58.08 214.279 57.52C214.599 56.96 214.759 56.28 214.759 55.48C214.759 54.68 214.606 54.0067 214.299 53.46C213.993 52.9 213.586 52.48 213.079 52.2C212.573 51.92 212.026 51.78 211.439 51.78C210.853 51.78 210.306 51.92 209.799 52.2C209.306 52.48 208.913 52.9 208.619 53.46C208.326 54.0067 208.179 54.68 208.179 55.48C208.179 56.6667 208.479 57.5867 209.079 58.24C209.693 58.88 210.459 59.2 211.379 59.2ZM218.393 55.48C218.393 54.3467 218.62 53.3533 219.073 52.5C219.54 51.6333 220.18 50.9667 220.993 50.5C221.806 50.0333 222.74 49.8 223.793 49.8C225.126 49.8 226.226 50.12 227.093 50.76C227.973 51.3867 228.566 52.2867 228.873 53.46H226.413C226.213 52.9133 225.893 52.4867 225.453 52.18C225.013 51.8733 224.46 51.72 223.793 51.72C222.86 51.72 222.113 52.0533 221.553 52.72C221.006 53.3733 220.733 54.2933 220.733 55.48C220.733 56.6667 221.006 57.5933 221.553 58.26C222.113 58.9267 222.86 59.26 223.793 59.26C225.113 59.26 225.986 58.68 226.413 57.52H228.873C228.553 58.64 227.953 59.5333 227.073 60.2C226.193 60.8533 225.1 61.18 223.793 61.18C222.74 61.18 221.806 60.9467 220.993 60.48C220.18 60 219.54 59.3333 219.073 58.48C218.62 57.6133 218.393 56.6133 218.393 55.48ZM241.045 55.22C241.045 55.6333 241.019 56.0067 240.965 56.34H232.545C232.612 57.22 232.939 57.9267 233.525 58.46C234.112 58.9933 234.832 59.26 235.685 59.26C236.912 59.26 237.779 58.7467 238.285 57.72H240.745C240.412 58.7333 239.805 59.5667 238.925 60.22C238.059 60.86 236.979 61.18 235.685 61.18C234.632 61.18 233.685 60.9467 232.845 60.48C232.019 60 231.365 59.3333 230.885 58.48C230.419 57.6133 230.185 56.6133 230.185 55.48C230.185 54.3467 230.412 53.3533 230.865 52.5C231.332 51.6333 231.979 50.9667 232.805 50.5C233.645 50.0333 234.605 49.8 235.685 49.8C236.725 49.8 237.652 50.0267 238.465 50.48C239.279 50.9333 239.912 51.5733 240.365 52.4C240.819 53.2133 241.045 54.1533 241.045 55.22ZM238.665 54.5C238.652 53.66 238.352 52.9867 237.765 52.48C237.179 51.9733 236.452 51.72 235.585 51.72C234.799 51.72 234.125 51.9733 233.565 52.48C233.005 52.9733 232.672 53.6467 232.565 54.5H238.665ZM247.089 61.18C246.222 61.18 245.442 61.0267 244.749 60.72C244.069 60.4 243.529 59.9733 243.129 59.44C242.729 58.8933 242.516 58.2867 242.489 57.62H244.849C244.889 58.0867 245.109 58.48 245.509 58.8C245.922 59.1067 246.436 59.26 247.049 59.26C247.689 59.26 248.182 59.14 248.529 58.9C248.889 58.6467 249.069 58.3267 249.069 57.94C249.069 57.5267 248.869 57.22 248.469 57.02C248.082 56.82 247.462 56.6 246.609 56.36C245.782 56.1333 245.109 55.9133 244.589 55.7C244.069 55.4867 243.616 55.16 243.229 54.72C242.856 54.28 242.669 53.7 242.669 52.98C242.669 52.3933 242.842 51.86 243.189 51.38C243.536 50.8867 244.029 50.5 244.669 50.22C245.322 49.94 246.069 49.8 246.909 49.8C248.162 49.8 249.169 50.12 249.929 50.76C250.702 51.3867 251.116 52.2467 251.169 53.34H248.889C248.849 52.8467 248.649 52.4533 248.289 52.16C247.929 51.8667 247.442 51.72 246.829 51.72C246.229 51.72 245.769 51.8333 245.449 52.06C245.129 52.2867 244.969 52.5867 244.969 52.96C244.969 53.2533 245.076 53.5 245.289 53.7C245.502 53.9 245.762 54.06 246.069 54.18C246.376 54.2867 246.829 54.4267 247.429 54.6C248.229 54.8133 248.882 55.0333 249.389 55.26C249.909 55.4733 250.356 55.7933 250.729 56.22C251.102 56.6467 251.296 57.2133 251.309 57.92C251.309 58.5467 251.136 59.1067 250.789 59.6C250.442 60.0933 249.949 60.48 249.309 60.76C248.682 61.04 247.942 61.18 247.089 61.18ZM257.573 61.18C256.706 61.18 255.926 61.0267 255.233 60.72C254.553 60.4 254.013 59.9733 253.613 59.44C253.213 58.8933 252.999 58.2867 252.973 57.62H255.333C255.373 58.0867 255.593 58.48 255.993 58.8C256.406 59.1067 256.919 59.26 257.533 59.26C258.173 59.26 258.666 59.14 259.013 58.9C259.373 58.6467 259.553 58.3267 259.553 57.94C259.553 57.5267 259.353 57.22 258.953 57.02C258.566 56.82 257.946 56.6 257.093 56.36C256.266 56.1333 255.593 55.9133 255.073 55.7C254.553 55.4867 254.099 55.16 253.713 54.72C253.339 54.28 253.153 53.7 253.153 52.98C253.153 52.3933 253.326 51.86 253.673 51.38C254.019 50.8867 254.513 50.5 255.153 50.22C255.806 49.94 256.553 49.8 257.393 49.8C258.646 49.8 259.653 50.12 260.413 50.76C261.186 51.3867 261.599 52.2467 261.653 53.34H259.373C259.333 52.8467 259.133 52.4533 258.773 52.16C258.413 51.8667 257.926 51.72 257.313 51.72C256.713 51.72 256.253 51.8333 255.933 52.06C255.613 52.2867 255.453 52.5867 255.453 52.96C255.453 53.2533 255.559 53.5 255.773 53.7C255.986 53.9 256.246 54.06 256.553 54.18C256.859 54.2867 257.313 54.4267 257.913 54.6C258.713 54.8133 259.366 55.0333 259.873 55.26C260.393 55.4733 260.839 55.7933 261.213 56.22C261.586 56.6467 261.779 57.2133 261.793 57.92C261.793 58.5467 261.619 59.1067 261.273 59.6C260.926 60.0933 260.433 60.48 259.793 60.76C259.166 61.04 258.426 61.18 257.573 61.18Z" fill="#363636"/>
<g filter="url(#filter0_d_1_320)">
<circle cx="74" cy="54" r="35" fill="white"/>
</g>
<g filter="url(#filter1_d_1_320)">
<path d="M81.5 53.634C82.1667 54.0189 82.1667 54.9811 81.5 55.366L71.75 60.9952C71.0833 61.3801 70.25 60.899 70.25 60.1292L70.25 48.8708C70.25 48.101 71.0833 47.6199 71.75 48.0048L81.5 53.634Z" fill="#FDC55E"/>
</g>
<defs>
<filter id="filter0_d_1_320" x="0" y="0" width="148" height="148" filterUnits="userSpaceOnUse" color-interpolation-filters="sRGB">
<feFlood flood-opacity="0" result="BackgroundImageFix"/>
<feColorMatrix in="SourceAlpha" type="matrix" values="0 0 0 0 0 0 0 0 0 0 0 0 0 0 0 0 0 0 127 0" result="hardAlpha"/>
<feMorphology radius="10" operator="erode" in="SourceAlpha" result="effect1_dropShadow_1_320"/>
<feOffset dy="20"/>
<feGaussianBlur stdDeviation="24.5"/>
<feColorMatrix type="matrix" values="0 0 0 0 0 0 0 0 0 0 0 0 0 0 0 0 0 0 0.08 0"/>
<feBlend mode="normal" in2="BackgroundImageFix" result="effect1_dropShadow_1_320"/>
<feBlend mode="normal" in="SourceGraphic" in2="effect1_dropShadow_1_320" result="shape"/>
</filter>
<filter id="filter1_d_1_320" x="55.25" y="40.8694" width="41.75" height="43.2612" filterUnits="userSpaceOnUse" color-interpolation-filters="sRGB">
<feFlood flood-opacity="0" result="BackgroundImageFix"/>
<feColorMatrix in="SourceAlpha" type="matrix" values="0 0 0 0 0 0 0 0 0 0 0 0 0 0 0 0 0 0 127 0" result="hardAlpha"/>
<feOffset dy="8"/>
<feGaussianBlur stdDeviation="7.5"/>
<feColorMatrix type="matrix" values="0 0 0 0 0.992157 0 0 0 0 0.772549 0 0 0 0 0.368627 0 0 0 0.2 0"/>
<feBlend mode="normal" in2="BackgroundImageFix" result="effect1_dropShadow_1_320"/>
<feBlend mode="normal" in="SourceGraphic" in2="effect1_dropShadow_1_320" result="shape"/>
</filter>
</defs>
</svg>
